<svg id="Group_94" data-name="Group 94" xmlns="http://www.w3.org/2000/svg" width="52.305" height="52.305" viewBox="0 0 52.305 52.305">
  <circle id="Ellipse_25" data-name="Ellipse 25" cx="26.152" cy="26.152" r="26.152" fill="#d0dfe0"/>
  <path id="Icon_feather-phone" data-name="Icon feather-phone" d="M24.741,19.184v3.254a2.169,2.169,0,0,1-2.365,2.169,21.466,21.466,0,0,1-9.361-3.33,21.152,21.152,0,0,1-6.508-6.508,21.466,21.466,0,0,1-3.33-9.4A2.169,2.169,0,0,1,5.335,3H8.589a2.169,2.169,0,0,1,2.169,1.866,13.927,13.927,0,0,0,.759,3.048A2.169,2.169,0,0,1,11.03,10.2L9.652,11.58a17.355,17.355,0,0,0,6.508,6.508l1.378-1.378a2.169,2.169,0,0,1,2.289-.488,13.928,13.928,0,0,0,3.048.759,2.169,2.169,0,0,1,1.866,2.2Z" transform="translate(12.198 12.2)" fill="none" stroke="#135d66" stroke-linecap="round" stroke-linejoin="round" stroke-width="1.5"/>
</svg>
