<svg xmlns="http://www.w3.org/2000/svg" width="77" height="77" viewBox="0 0 77 77">
  <g id="Group_94" data-name="Group 94" transform="translate(-408 -3707)">
    <circle id="Ellipse_25" data-name="Ellipse 25" cx="38.5" cy="38.5" r="38.5" transform="translate(408 3707)" fill="#d0dfe0"/>
    <path id="Path_40" data-name="Path 40" d="M27.936,4.673V0H11.906V4.673H0v30.5H39.842V4.673ZM14.24,2.334H25.6V4.673H14.24Zm23.267,30.5H2.334V19.205a10.968,10.968,0,0,0,8.646,4.219H14.86v2.336H24.982V23.425h3.879a10.968,10.968,0,0,0,8.646-4.219ZM17.194,23.426V21.088h5.453v2.338ZM28.861,21.09H24.982V18.754H14.86V21.09H10.981a8.656,8.656,0,0,1-8.646-8.646V7.007H37.508v5.436A8.656,8.656,0,0,1,28.861,21.09Zm0,0" transform="translate(426.078 3727.915)" fill="#135d66"/>
  </g>
</svg>
