<svg xmlns="http://www.w3.org/2000/svg" width="77" height="77" viewBox="0 0 77 77">
  <g id="Group_94" data-name="Group 94" transform="translate(-408 -3707)">
    <circle id="Ellipse_25" data-name="Ellipse 25" cx="38.5" cy="38.5" r="38.5" transform="translate(408 3707)" fill="#d0dfe0"/>
    <g id="Group_109" data-name="Group 109" transform="translate(424.758 3724.213)">
      <g id="Group_108" data-name="Group 108" transform="translate(0 0.05)">
        <path id="Path_23" data-name="Path 23" d="M21.249.05A21.237,21.237,0,0,0,1.723,12.928l-.265.088.1.308A21.235,21.235,0,1,0,21.249.05ZM37.907,31.994,36.816,30.9V28.366a.707.707,0,0,0-.071-.316l-2.761-5.514V19.871a.708.708,0,0,0-.315-.589l-2.124-1.416a.708.708,0,0,0-.566-.1l-2.6.65-4.368-1.875-.6-4.211,1.666-1.665h3.576l1.2,1.809a.708.708,0,0,0,.473.305l4.247.708a.7.7,0,0,0,.34-.027l3.912-1.3A19.75,19.75,0,0,1,37.907,31.994ZM34.987,7.026l-1.151.767-3.209-.642-2.082-.693a.7.7,0,0,0-.4-.016L25.518,7.1l-1.154-.384.855-1.71h2.394a.708.708,0,0,0,.316-.074l2.449-1.225A19.894,19.894,0,0,1,34.987,7.026Zm-21.5-3.979,1.7,1.133a.707.707,0,0,0,.277.109l3.43.572-.335,1-1.787.6a.708.708,0,0,0-.383.307l-2.033,3.388-3.266,1.959L6.278,12.8a.708.708,0,0,0-.609.7v2.124a.708.708,0,0,0,.207.5l1.208,1.208v1.216L4.14,16.585l-1.068-3.2A19.935,19.935,0,0,1,13.489,3.047Zm-2.015,23.21-3.2-.641L7.085,23.244V21.58l2.638-2.638L10.7,20.9a.708.708,0,0,0,.634.391h4.555l1.918,3.2a.708.708,0,0,0,.607.343h1.968l-.5,2.483-2.68,2.68a.708.708,0,0,0-.208.5v1.77l-2.548,1.911a.708.708,0,0,0-.283.566v2.557L13.283,37,12.04,33.893V26.95A.708.708,0,0,0,11.474,26.256ZM9.346,37.139A19.816,19.816,0,0,1,2.286,15.5l.588,1.764a.707.707,0,0,0,.278.365l3.529,2.352-.8.806a.708.708,0,0,0-.207.5v2.124a.708.708,0,0,0,.074.316l1.416,2.832a.708.708,0,0,0,.5.377l2.973.594v6.5a.708.708,0,0,0,.05.263l1.416,3.539a.708.708,0,0,0,.434.408l2.124.708a.7.7,0,0,0,.22.037.708.708,0,0,0,.708-.708V35.091l2.548-1.911a.708.708,0,0,0,.283-.566V30.783l2.624-2.624a.708.708,0,0,0,.193-.362l.708-3.539a.708.708,0,0,0-.694-.847H18.812l-1.918-3.2a.708.708,0,0,0-.607-.343H11.77l-1.216-2.44a.708.708,0,0,0-.52-.382.694.694,0,0,0-.614.2l-.919.915V17.04a.708.708,0,0,0-.207-.5L7.085,15.331V14.114l4.348-.621A.711.711,0,0,0,11.7,13.4l3.539-2.124a.708.708,0,0,0,.242-.242l1.989-3.315,1.875-.626a.7.7,0,0,0,.447-.447L20.5,4.521a.708.708,0,0,0-.555-.92l-4.1-.683-.72-.48a19.767,19.767,0,0,1,13.614.506l-1.293.646H24.782a.708.708,0,0,0-.637.391L22.729,6.813a.708.708,0,0,0,.41.988l2.124.708a.7.7,0,0,0,.4.016l2.632-.658,1.928.642a.52.52,0,0,0,.085.023l3.539.708a.7.7,0,0,0,.532-.1l1.611-1.075A19.971,19.971,0,0,1,38.115,10.9l-3.483,1.161-3.771-.629L29.615,9.568a.708.708,0,0,0-.585-.315H24.782a.708.708,0,0,0-.5.207l-2.124,2.124a.708.708,0,0,0-.2.6l.708,4.955a.708.708,0,0,0,.425.55l4.955,2.124a.7.7,0,0,0,.45.036l2.528-.632,1.545,1.032V22.7a.707.707,0,0,0,.071.316L35.4,28.533V31.2a.708.708,0,0,0,.207.5l1.481,1.482A19.816,19.816,0,0,1,9.346,37.139Z" transform="translate(0 -0.05)" fill="#135d66"/>
      </g>
    </g>
  </g>
</svg>
