<svg xmlns="http://www.w3.org/2000/svg" width="77" height="77" viewBox="0 0 77 77">
  <g id="Group_94" data-name="Group 94" transform="translate(-408 -3707)">
    <circle id="Ellipse_25" data-name="Ellipse 25" cx="38.5" cy="38.5" r="38.5" transform="translate(408 3707)" fill="#d0dfe0"/>
    <g id="Group_93" data-name="Group 93" transform="translate(423.801 3699.344)">
      <path id="Path_16" data-name="Path 16" d="M19.368,331.406h6.937a.867.867,0,0,0,.867-.867v-8.671a.867.867,0,0,0-.867-.867H19.368a.867.867,0,0,0-.867.867v8.671A.867.867,0,0,0,19.368,331.406Zm.867-8.671h5.2v6.937h-5.2Z" transform="translate(-16.897 -269.42)" fill="#135d66"/>
      <path id="Path_17" data-name="Path 17" d="M144.368,221a.867.867,0,0,0-.867.867V239.21a.867.867,0,0,0,.867.867h6.937a.867.867,0,0,0,.867-.867V221.868a.867.867,0,0,0-.867-.867Zm6.07,17.342h-5.2V222.735h5.2Z" transform="translate(-131.058 -178.091)" fill="#135d66"/>
      <path id="Path_18" data-name="Path 18" d="M269.368,271a.867.867,0,0,0-.867.867v13.007a.867.867,0,0,0,.867.867h6.937a.867.867,0,0,0,.867-.867V271.868a.867.867,0,0,0-.867-.867Zm6.07,13.007h-5.2V272.735h5.2Z" transform="translate(-245.219 -223.756)" fill="#135d66"/>
      <path id="Path_19" data-name="Path 19" d="M393.5,176.868v21.244a.867.867,0,0,0,.867.867h6.937a.867.867,0,0,0,.867-.867V176.868a.867.867,0,0,0-.867-.867h-6.937A.867.867,0,0,0,393.5,176.868Zm1.734.867h5.2v19.51h-5.2Z" transform="translate(-359.38 -136.993)" fill="#135d66"/>
      <path id="Path_20" data-name="Path 20" d="M36.536,44.644a3.035,3.035,0,0,0,2.813-4.175l6.3-5.038a3.031,3.031,0,0,0,4.106-.609L55.191,37q-.012.136-.012.275A3.035,3.035,0,1,0,61.054,36.2l6.209-4.719a3.03,3.03,0,1,0-1.05-1.38L60,34.824a3.031,3.031,0,0,0-4.167.565L50.4,33.213q.012-.136.012-.275a3.035,3.035,0,1,0-5.848,1.14l-6.3,5.038a3.034,3.034,0,1,0-1.729,5.528ZM69.053,27.735a1.3,1.3,0,1,1-1.3,1.3A1.3,1.3,0,0,1,69.053,27.735ZM58.214,35.973a1.3,1.3,0,1,1-1.3,1.3A1.3,1.3,0,0,1,58.214,35.973ZM47.375,31.637a1.3,1.3,0,1,1-1.3,1.3A1.3,1.3,0,0,1,47.375,31.637ZM36.536,40.308a1.3,1.3,0,1,1-1.3,1.3A1.3,1.3,0,0,1,36.536,40.308Z" transform="translate(-30.596)" fill="#135d66"/>
      <path id="Path_21" data-name="Path 21" d="M43.529,466H.867a.867.867,0,0,0,0,1.734H43.529a.867.867,0,0,0,0-1.734Z" transform="translate(0 -401.847)" fill="#135d66"/>
    </g>
  </g>
</svg>
