<svg xmlns="http://www.w3.org/2000/svg" width="77" height="77" viewBox="0 0 77 77">
  <g id="Group_94" data-name="Group 94" transform="translate(-408 -3707)">
    <circle id="Ellipse_25" data-name="Ellipse 25" cx="38.5" cy="38.5" r="38.5" transform="translate(408 3707)" fill="#d0dfe0"/>
    <path id="Path_22" data-name="Path 22" d="M50.9,21.345H49.054L46.3,22.791a4.081,4.081,0,0,0-.978-.4l-3.459-.865V21.13a5.765,5.765,0,0,0,2.464-4.711V14.984a5.9,5.9,0,0,0-5.57-5.951c-.156,0-.309,0-.464.009l.9-2.1L34.847,2.6,32.284,4.265A13.886,13.886,0,0,0,29.211,2.99L28.578,0H22.322l-.633,2.991a13.87,13.87,0,0,0-3.073,1.275L16.053,2.6,11.709,6.941l.881,2.1c-.034,0-.066-.008-.1-.008a5.749,5.749,0,0,0-5.924,5.743v1.642a5.763,5.763,0,0,0,2.463,4.71v.394l-2.256.564L2.685,19.7H0V36.714l8.076,2.692H9.649l.2-.688L12.321,40.2a2.556,2.556,0,0,0,2.465,2.476,2.556,2.556,0,0,0,2.463,2.463,2.556,2.556,0,0,0,2.463,2.463A2.553,2.553,0,0,0,23.7,49.633l.727.642a2.5,2.5,0,0,0,1.652.624h.152a2.5,2.5,0,0,0,2.495-2.466,2.5,2.5,0,0,0,2.463-2.463A2.5,2.5,0,0,0,33.656,43.5a2.524,2.524,0,0,0,2.466-2.519,2.4,2.4,0,0,0-.012-.246L50.9,33.345Zm-8.21-6.361v1.435a4.121,4.121,0,0,1-2.055,3.552l-.41.237,0,2.6,4.1,1.025L35.3,28.583V26.371a4.085,4.085,0,0,0-1.176-2.861l2.818-.7v-2.6l-.41-.237a4.116,4.116,0,0,1-2.053-3.551V14.777a4.1,4.1,0,0,1,4.232-4.1A4.245,4.245,0,0,1,42.689,14.984Zm-16,12.954L22.971,26.75a10.138,10.138,0,0,0-5.26-.24l-.471.1v-.243a2.461,2.461,0,0,1,1.865-2.39l4.7-1.175v-2.6l-.41-.237a4.116,4.116,0,0,1-2.053-3.551V14.777a4.1,4.1,0,0,1,4.232-4.1,4.245,4.245,0,0,1,3.978,4.309v1.435A4.121,4.121,0,0,1,27.5,19.971l-.41.237,0,2.6,4.7,1.175a2.461,2.461,0,0,1,1.865,2.39v3.076l-.2.107h-.5l-5.047-1.442A5.175,5.175,0,0,0,26.687,27.938ZM17.424,12.287a9.024,9.024,0,0,1,16.017-.066,5.709,5.709,0,0,0-.6,2.556v1.642a5.763,5.763,0,0,0,2.463,4.71v.394l-3.284.822-3.285-.822V21.13A5.765,5.765,0,0,0,31.2,16.419V14.984a5.9,5.9,0,0,0-5.57-5.951A5.748,5.748,0,0,0,19.7,14.777v1.642a5.763,5.763,0,0,0,2.463,4.71v.394l-3.284.822L15.6,21.523V21.13a5.765,5.765,0,0,0,2.464-4.711V14.984A6.051,6.051,0,0,0,17.424,12.287ZM13.648,7.322,16.271,4.7,18.58,6.2l.442-.271a12.25,12.25,0,0,1,3.555-1.474l.505-.121.571-2.693h3.595l.57,2.693.505.121A12.262,12.262,0,0,1,31.877,5.93l.442.271,2.309-1.5,2.62,2.62L36.315,9.5a5.738,5.738,0,0,0-1.733,1.152c-.034.033-.063.068-.1.1a10.661,10.661,0,0,0-18.107.049,5.791,5.791,0,0,0-1.811-1.284ZM10.672,22.807v-2.6l-.41-.237A4.116,4.116,0,0,1,8.21,16.419V14.777a4.1,4.1,0,0,1,4.232-4.1,4.245,4.245,0,0,1,3.978,4.309v1.435a4.121,4.121,0,0,1-2.055,3.552l-.41.237,0,2.6,2.817.7A4.085,4.085,0,0,0,15.6,26.371v.608l-2.561.569.067-.232.031-1.517-4.33-2.526Zm-9.03-1.462h.6l5.9,3.444L5.165,36.7,1.642,35.53Zm6.7,16.419-1.616-.538L9.621,25.65l1.872,1.092v.235L8.412,37.764Zm5.614,2.363a.927.927,0,0,1,.269-.651l1.443-1.443a.921.921,0,0,1,1.3,1.3l-1.443,1.443a.921.921,0,0,1-1.571-.651Zm2.463,2.463a.927.927,0,0,1,.269-.651L18.131,40.5a.921.921,0,0,1,1.3,1.3L17.99,43.241a.921.921,0,0,1-1.571-.651Zm2.463,2.463a.927.927,0,0,1,.269-.651l1.443-1.443a.921.921,0,0,1,1.3,1.3L20.453,45.7a.921.921,0,0,1-1.571-.651Zm3.383,3.383a.921.921,0,0,1-.651-1.571l1.443-1.443a.921.921,0,0,1,1.3,1.3l-1.443,1.443A.927.927,0,0,1,22.265,48.436Zm3.97.821h-.152a.851.851,0,0,1-.566-.214L24.9,48.5l.617-.617a2.552,2.552,0,0,0,.517-.763l.746.621a.856.856,0,0,1-.548,1.514ZM33.6,41.868h-.142a.881.881,0,0,1-.565-.205l-4.452-3.71-1.052,1.262,4.323,3.6a.857.857,0,0,1-.549,1.514h-.179a.856.856,0,0,1-.548-.2l-4.459-3.716-1.052,1.262,4.323,3.6a.856.856,0,0,1-.548,1.513,1.356,1.356,0,0,1-.864-.313L26,44.954a2.554,2.554,0,0,0-2.2-1.435,2.556,2.556,0,0,0-2.463-2.463,2.556,2.556,0,0,0-2.463-2.463,2.556,2.556,0,0,0-4.364-1.722l-1.443,1.443a2.53,2.53,0,0,0-.23.281l-2.522-1.513,2.211-7.737,5.542-1.232a8.457,8.457,0,0,1,4.4.2l1.209.387-4.1,2.05a2.737,2.737,0,0,0-1.519,2.46v.162a2.749,2.749,0,0,0,4.165,2.358L25.283,33.9a1.7,1.7,0,0,1,1.969.19l6.936,6.243a.884.884,0,0,1-.59,1.54Zm15.66-9.538L35.426,39.246c-.045-.048-.092-.093-.141-.137L28.35,32.867a3.3,3.3,0,0,0-3.913-.378l-3.058,1.834a1.107,1.107,0,0,1-1.676-.951v-.162a1.1,1.1,0,0,1,.613-.991l4.579-2.29a3.568,3.568,0,0,1,2.559-.237l5.159,1.474,1.249.031,15.4-8.1Zm0,0" transform="translate(421.551 3720.551)" fill="#135d66"/>
  </g>
</svg>
