<svg id="Group_117" data-name="Group 117" xmlns="http://www.w3.org/2000/svg" width="484.662" height="423.062" viewBox="0 0 484.662 423.062">
  <path id="Path_24" data-name="Path 24" d="M472.436,244.333s13.53,1.978,12.123,19.7c-.993,12.514-26.231,47.231-71.039,66.87-15.917,6.979-26.079.452-28.486-.991-2.782,2.275-39.636,50.546-73.242,50.814-19.7.159-25.006-21.407-23.869-25.954s-29.818,23.76-101.418,49.682c-107.64,38.97-144.267,7.8-161.75-12.764-34.81-40.95-36-114.676,16.4-223.471C89.3,68.286,151.7,12.569,163.809,4.588c4.3-2.837,11.712-8.813,18.559.173,5.69,7.468.8,10.83-5.776,17.543C123.319,76.647,91.532,117.952,65.551,176.99,52.791,205.981.393,317.131,49.234,379.211c21.63,27.495,76.722,25.006,133.553,0s81.2-36.588,113.851-75.774c11.366-13.639,22.355,2.273,23.492,6.82s.234,11.062-7.2,34.856c12.144,1.757,29.157-13.851,44.328-25.763,16.1-12.637,28.741-28.359,34.994-34.344,6.774-6.481,18.113-9.636,17.208,9.25-.636,13.267,20.164-2.564,25.847-5.974s37.606-29.561,37.129-43.949" transform="translate(0 0)" fill="#231f20"/>
  <path id="Path_25" data-name="Path 25" d="M197.921,90.986a28.242,28.242,0,1,1-28.243-28.241,28.243,28.243,0,0,1,28.243,28.241" transform="translate(180.084 79.89)" fill="#231F20"/>
  <path id="Path_26" data-name="Path 26" d="M237.826,83.08a28.242,28.242,0,1,1-28.243-28.24,28.243,28.243,0,0,1,28.243,28.24" transform="translate(230.893 69.825)" fill="#231F20"/>
  <path id="Path_27" data-name="Path 27" d="M218.626,58.282a28.242,28.242,0,1,1-28.243-28.243,28.243,28.243,0,0,1,28.243,28.243" transform="translate(206.447 38.247)" fill="#231F20"/>
</svg>
